<?xml version="1.0" encoding="UTF-8"?>
<svg id="Capa_2" data-name="Capa 2" xmlns="http://www.w3.org/2000/svg" viewBox="0 0 120.13 84.04">
  <defs>
    <style>
      .cls-1 {
        fill: #bcb5c8;
      }

      .cls-1, .cls-2, .cls-3, .cls-4, .cls-5, .cls-6, .cls-7, .cls-8, .cls-9, .cls-10, .cls-11, .cls-12, .cls-13, .cls-14, .cls-15, .cls-16, .cls-17, .cls-18, .cls-19, .cls-20, .cls-21, .cls-22, .cls-23, .cls-24, .cls-25, .cls-26, .cls-27, .cls-28, .cls-29, .cls-30, .cls-31, .cls-32, .cls-33, .cls-34, .cls-35, .cls-36, .cls-37, .cls-38, .cls-39, .cls-40, .cls-41, .cls-42, .cls-43, .cls-44, .cls-45, .cls-46, .cls-47, .cls-48, .cls-49, .cls-50, .cls-51, .cls-52, .cls-53, .cls-54, .cls-55, .cls-56, .cls-57, .cls-58, .cls-59, .cls-60, .cls-61, .cls-62, .cls-63, .cls-64, .cls-65, .cls-66, .cls-67, .cls-68, .cls-69, .cls-70, .cls-71, .cls-72, .cls-73, .cls-74, .cls-75, .cls-76, .cls-77, .cls-78, .cls-79, .cls-80, .cls-81, .cls-82, .cls-83, .cls-84, .cls-85, .cls-86, .cls-87, .cls-88, .cls-89, .cls-90, .cls-91, .cls-92, .cls-93, .cls-94, .cls-95, .cls-96, .cls-97, .cls-98, .cls-99, .cls-100, .cls-101, .cls-102, .cls-103, .cls-104, .cls-105, .cls-106, .cls-107, .cls-108, .cls-109, .cls-110, .cls-111, .cls-112, .cls-113, .cls-114, .cls-115, .cls-116, .cls-117, .cls-118, .cls-119, .cls-120, .cls-121, .cls-122, .cls-123, .cls-124, .cls-125, .cls-126, .cls-127, .cls-128, .cls-129, .cls-130, .cls-131, .cls-132, .cls-133, .cls-134, .cls-135, .cls-136, .cls-137, .cls-138, .cls-139, .cls-140, .cls-141, .cls-142, .cls-143, .cls-144, .cls-145, .cls-146, .cls-147, .cls-148, .cls-149, .cls-150, .cls-151, .cls-152, .cls-153, .cls-154, .cls-155, .cls-156, .cls-157, .cls-158, .cls-159, .cls-160, .cls-161, .cls-162, .cls-163, .cls-164, .cls-165, .cls-166, .cls-167, .cls-168, .cls-169, .cls-170, .cls-171, .cls-172, .cls-173, .cls-174, .cls-175, .cls-176, .cls-177, .cls-178, .cls-179, .cls-180, .cls-181, .cls-182, .cls-183, .cls-184, .cls-185, .cls-186, .cls-187, .cls-188, .cls-189, .cls-190, .cls-191, .cls-192, .cls-193, .cls-194, .cls-195, .cls-196, .cls-197, .cls-198, .cls-199, .cls-200, .cls-201, .cls-202, .cls-203, .cls-204, .cls-205, .cls-206, .cls-207, .cls-208, .cls-209, .cls-210, .cls-211, .cls-212, .cls-213, .cls-214, .cls-215 {
        stroke-width: 0px;
      }

      .cls-2 {
        fill: #131720;
      }

      .cls-3 {
        fill: #181514;
      }

      .cls-4 {
        fill: #c82745;
      }

      .cls-5 {
        fill: #c9392b;
      }

      .cls-6 {
        fill: #080912;
      }

      .cls-7 {
        fill: #171212;
      }

      .cls-8 {
        fill: #3e4148;
      }

      .cls-9 {
        fill: #12151c;
      }

      .cls-10 {
        fill: #b20c54;
      }

      .cls-11 {
        fill: #383b3e;
      }

      .cls-12 {
        fill: #f4b9d0;
      }

      .cls-13 {
        fill: #e56d81;
      }

      .cls-14 {
        fill: #6c2e23;
      }

      .cls-15 {
        fill: #e5868d;
      }

      .cls-16 {
        fill: #4b5969;
      }

      .cls-17 {
        fill: #121217;
      }

      .cls-18 {
        fill: #282729;
      }

      .cls-19 {
        fill: #14bebc;
      }

      .cls-20 {
        fill: #1ed9e2;
      }

      .cls-21 {
        fill: #943a19;
      }

      .cls-22 {
        fill: #10141c;
      }

      .cls-23 {
        fill: #a7a2af;
      }

      .cls-24 {
        fill: #722919;
      }

      .cls-25 {
        fill: #eebb1b;
      }

      .cls-26 {
        fill: #e98991;
      }

      .cls-27 {
        fill: #d0743b;
      }

      .cls-28 {
        fill: #040710;
      }

      .cls-29 {
        fill: #0d0606;
      }

      .cls-30 {
        fill: #626568;
      }

      .cls-31 {
        fill: #c5cac4;
      }

      .cls-32 {
        fill: #dadcdc;
      }

      .cls-33 {
        fill: #0a0403;
      }

      .cls-34 {
        fill: #fbe27d;
      }

      .cls-35 {
        fill: #dee4e5;
      }

      .cls-36 {
        fill: #cdd2cd;
      }

      .cls-37 {
        fill: #ce7138;
      }

      .cls-38 {
        fill: #d95966;
      }

      .cls-39 {
        fill: #070a13;
      }

      .cls-40 {
        fill: #e4e6e4;
      }

      .cls-41 {
        fill: #433636;
      }

      .cls-42 {
        fill: #c1c9c6;
      }

      .cls-43 {
        fill: #f2f2f0;
      }

      .cls-44 {
        fill: #1a1206;
      }

      .cls-45 {
        fill: #090404;
      }

      .cls-46 {
        fill: #f4e9e6;
      }

      .cls-47 {
        fill: #d8831b;
      }

      .cls-48 {
        fill: #131313;
      }

      .cls-49 {
        fill: #f6e0c5;
      }

      .cls-50 {
        fill: #cdcdcd;
      }

      .cls-51 {
        fill: #c2c9c3;
      }

      .cls-52 {
        fill: #36373a;
      }

      .cls-53 {
        fill: #b56d45;
      }

      .cls-54 {
        fill: #7d2611;
      }

      .cls-55 {
        fill: #0d0d0d;
      }

      .cls-56 {
        fill: #495568;
      }

      .cls-57 {
        fill: #d88481;
      }

      .cls-58 {
        fill: #0c0303;
      }

      .cls-59 {
        fill: #12bfbc;
      }

      .cls-60 {
        fill: #c42e26;
      }

      .cls-61 {
        fill: #0c0c0c;
      }

      .cls-62 {
        fill: #ef932f;
      }

      .cls-63 {
        fill: #a1b0c1;
      }

      .cls-64 {
        fill: #4f5d6f;
      }

      .cls-65 {
        fill: #f3e3b3;
      }

      .cls-66 {
        fill: #0a0706;
      }

      .cls-67 {
        fill: #39475a;
      }

      .cls-68 {
        fill: #f0f0ee;
      }

      .cls-69 {
        fill: #a6b3c3;
      }

      .cls-70 {
        fill: #151014;
      }

      .cls-71 {
        fill: #fcce07;
      }

      .cls-72 {
        fill: #a23d16;
      }

      .cls-73 {
        fill: #92a3a6;
      }

      .cls-74 {
        fill: #ebebeb;
      }

      .cls-75 {
        fill: #902a50;
      }

      .cls-76 {
        fill: #4a586a;
      }

      .cls-77 {
        fill: #fbf7d5;
      }

      .cls-78 {
        fill: #c9cbc7;
      }

      .cls-79 {
        fill: #c56c38;
      }

      .cls-80 {
        fill: #94a6a8;
      }

      .cls-81 {
        fill: #93a5a8;
      }

      .cls-82 {
        fill: #954724;
      }

      .cls-83 {
        fill: #11141d;
      }

      .cls-84 {
        fill: #a2acbb;
      }

      .cls-85 {
        fill: #211812;
      }

      .cls-86 {
        fill: #b8c4bf;
      }

      .cls-87 {
        fill: #cd6f36;
      }

      .cls-88 {
        fill: #933615;
      }

      .cls-89 {
        fill: #bf3822;
      }

      .cls-90 {
        fill: #c13027;
      }

      .cls-91 {
        fill: #b9b9b6;
      }

      .cls-92 {
        fill: #1e232e;
      }

      .cls-93 {
        fill: #616368;
      }

      .cls-94 {
        fill: #f5f7f7;
      }

      .cls-95 {
        fill: #c03229;
      }

      .cls-96 {
        fill: #0d0c0d;
      }

      .cls-97 {
        fill: #23272f;
      }

      .cls-98 {
        fill: #1b1f28;
      }

      .cls-99 {
        fill: #f3bd15;
      }

      .cls-100 {
        fill: #14141b;
      }

      .cls-101 {
        fill: #c7cbc5;
      }

      .cls-102 {
        fill: #71899f;
      }

      .cls-103 {
        fill: #bd9eb6;
      }

      .cls-104 {
        fill: #9b4622;
      }

      .cls-105 {
        fill: #b9b1c0;
      }

      .cls-106 {
        fill: #241b1d;
      }

      .cls-107 {
        fill: #eb8214;
      }

      .cls-108 {
        fill: #c8382b;
      }

      .cls-109 {
        fill: #aceff1;
      }

      .cls-110 {
        fill: #15171d;
      }

      .cls-111 {
        fill: #130c03;
      }

      .cls-112 {
        fill: #f5ddbf;
      }

      .cls-113 {
        fill: #babbb8;
      }

      .cls-114 {
        fill: #ef8412;
      }

      .cls-115 {
        fill: #f3f4f2;
      }

      .cls-116 {
        fill: #191d25;
      }

      .cls-117 {
        fill: #a7b6c8;
      }

      .cls-118 {
        fill: #485365;
      }

      .cls-119 {
        fill: #1d130c;
      }

      .cls-120 {
        fill: #24272f;
      }

      .cls-121 {
        fill: #c15f2a;
      }

      .cls-122 {
        fill: #1b1f25;
      }

      .cls-123 {
        fill: #a3adbc;
      }

      .cls-124 {
        fill: #010101;
      }

      .cls-125 {
        fill: #c73526;
      }

      .cls-126 {
        fill: #f1b311;
      }

      .cls-127 {
        fill: #e98014;
      }

      .cls-128 {
        fill: #bec3bb;
      }

      .cls-129 {
        fill: #baabbd;
      }

      .cls-130 {
        fill: #12151d;
      }

      .cls-131 {
        fill: #dedede;
      }

      .cls-132 {
        fill: #334052;
      }

      .cls-133 {
        fill: #595a68;
      }

      .cls-134 {
        fill: #e98c8b;
      }

      .cls-135 {
        fill: #c73524;
      }

      .cls-136 {
        fill: #10131b;
      }

      .cls-137 {
        fill: #b9345c;
      }

      .cls-138 {
        fill: #b8bcb9;
      }

      .cls-139 {
        fill: #f8ecd9;
      }

      .cls-140 {
        fill: #0d0505;
      }

      .cls-141 {
        fill: #ea8215;
      }

      .cls-142 {
        fill: #fbd915;
      }

      .cls-143 {
        fill: #db8d2a;
      }

      .cls-144 {
        fill: #4d586a;
      }

      .cls-145 {
        fill: #3a3a3b;
      }

      .cls-146 {
        fill: #e35a6a;
      }

      .cls-147 {
        fill: #c9cdc7;
      }

      .cls-148 {
        fill: #fade6c;
      }

      .cls-149 {
        fill: #394353;
      }

      .cls-150 {
        fill: #ef8414;
      }

      .cls-151 {
        fill: #f18516;
      }

      .cls-152 {
        fill: #b52b24;
      }

      .cls-153 {
        fill: #01050f;
      }

      .cls-154 {
        fill: #686b6f;
      }

      .cls-155 {
        fill: #6d200e;
      }

      .cls-156 {
        fill: #c63126;
      }

      .cls-157 {
        fill: #111;
      }

      .cls-158 {
        fill: #c7c9c6;
      }

      .cls-159 {
        fill: #2a2d34;
      }

      .cls-160 {
        fill: #03050d;
      }

      .cls-161 {
        fill: #81341f;
      }

      .cls-162 {
        fill: #11262c;
      }

      .cls-163 {
        fill: #f6f6f3;
      }

      .cls-164 {
        fill: #111620;
      }

      .cls-165 {
        fill: #090503;
      }

      .cls-166 {
        fill: #bcc8c1;
      }

      .cls-167 {
        fill: #f8e7a7;
      }

      .cls-168 {
        fill: #ef942d;
      }

      .cls-169 {
        fill: #fae488;
      }

      .cls-170 {
        fill: #aeb9b6;
      }

      .cls-171 {
        fill: #a1b1c3;
      }

      .cls-172 {
        fill: #555b6c;
      }

      .cls-173 {
        fill: #c53125;
      }

      .cls-174 {
        fill: #cd7038;
      }

      .cls-175 {
        fill: #b20e52;
      }

      .cls-176 {
        fill: #181b23;
      }

      .cls-177 {
        fill: #080303;
      }

      .cls-178 {
        fill: #b26b56;
      }

      .cls-179 {
        fill: #fff;
      }

      .cls-180 {
        fill: #423e41;
      }

      .cls-181 {
        fill: #0f0d0d;
      }

      .cls-182 {
        fill: #faf4ce;
      }

      .cls-183 {
        fill: #120b06;
      }

      .cls-184 {
        fill: #6e210e;
      }

      .cls-185 {
        fill: #a83e1a;
      }

      .cls-186 {
        fill: #ef8411;
      }

      .cls-187 {
        fill: #050304;
      }

      .cls-188 {
        fill: #d2d4d0;
      }

      .cls-189 {
        fill: #2c96a1;
      }

      .cls-190 {
        fill: #2c2f36;
      }

      .cls-191 {
        fill: #9a95a0;
      }

      .cls-192 {
        fill: #475465;
      }

      .cls-193 {
        fill: #fbd11b;
      }

      .cls-194 {
        fill: #c76b36;
      }

      .cls-195 {
        fill: #c6c0cf;
      }

      .cls-196 {
        fill: #70281a;
      }

      .cls-197 {
        fill: #18171f;
      }

      .cls-198 {
        fill: #bec5c0;
      }

      .cls-199 {
        fill: #455368;
      }

      .cls-200 {
        fill: #c62843;
      }

      .cls-201 {
        fill: #bca7bc;
      }

      .cls-202 {
        fill: #090909;
      }

      .cls-203 {
        fill: #0f0e16;
      }

      .cls-204 {
        fill: #bd3324;
      }

      .cls-205 {
        fill: #e91a6d;
      }

      .cls-206 {
        fill: #23171a;
      }

      .cls-207 {
        fill: #cacdc6;
      }

      .cls-208 {
        fill: #05050d;
      }

      .cls-209 {
        fill: #ab9aa8;
      }

      .cls-210 {
        fill: #f4f5f2;
      }

      .cls-211 {
        fill: #14161f;
      }

      .cls-212 {
        fill: #748799;
      }

      .cls-213 {
        fill: #92a3a5;
      }

      .cls-214 {
        fill: #c8362e;
      }

      .cls-215 {
        fill: #3b4658;
      }
    </style>
  </defs>
  <g id="Capa_1-2" data-name="Capa 1">
    <g>
      <g>
        <polygon class="cls-179" points="78.37 67.25 81.26 57.38 77.49 51.17 71.83 43.51 82.59 15.67 88.13 13.67 100.78 15.67 112.98 44.51 105.44 56.71 111.21 67.92 102.78 68.91 84.92 70.33 78.37 67.25"/>
        <g>
          <path class="cls-157" d="M120.13,22.96v17.02c-.24,0-.49,0-.73,0,0-5.67,0-11.34,0-17.01.24,0,.49,0,.73,0Z"/>
          <path class="cls-61" d="M120.13,22.96c-.24,0-.49,0-.73,0,0-4.16,0-8.32-.01-12.48.25-.04.5-.08.74-.11v12.58Z"/>
          <path class="cls-55" d="M119.4,39.98c.24,0,.49,0,.73,0v5.18c-.25-.03-.49-.06-.74-.09,0-1.7,0-3.4.01-5.09Z"/>
          <path class="cls-48" d="M70.62,45.19c-1.67.25-2.7.05-2.67-2.17.11-10.16.12-20.33.01-30.49-.02-2.26,1.06-2.36,2.7-2.12v-.04c.08.99.16,1.98.24,2.97,0,1.49,0,2.99,0,4.48-.02,2.47-.04,4.95-.06,7.42-.07,6.64-.13,13.28-.2,19.91l-.04.04Z"/>
          <path class="cls-45" d="M113.62,70.24c-13.33,0-26.65-.02-39.98-.02-.06-.46-.12-.92-.17-1.38.1-.24.19-.49.29-.73,2.88-.43,5.93.91,8.68-.83-.03-.46-.07-.92-.1-1.37.06-.24.12-.48.19-.72,1,0,1.96-.13,2.78-.79.08.72.17,1.45.25,2.17,0,1.07-.87,2.83,1.01,2.74,1.54-.08,3.83,1.63,4.7-1.24.07-.2.12-.4.14-.61l.34-.08s.34.09.34.09c.61,3.6,2.6,2.27,4.5,1.26,4.89,1.83,6,1.23,6.62-3.58.71.02,1.42.04,2.13.06.03.24.08.48.15.71-.04.25-.07.49-.11.74.22,1.57,1.41,1.44,2.51,1.44,2.09,0,4.17,0,6.26,0,.61.89.05,1.51-.5,2.13Z"/>
          <path class="cls-33" d="M119.4,39.98c0,1.7,0,3.4-.01,5.09-.7.06-1.4.12-2.1.18,0,0-.1-.07-.1-.07,0-1.48-.01-2.95-.02-4.43,0-3.23,0-6.46,0-9.69-.02-1.72-.03-3.45-.05-5.17,0-.98.02-1.96.02-2.94-.01-1.68-.02-3.37-.03-5.05.02-1.5.03-2.99.05-4.49,0-1.04,0-2.08,0-3.12.74.07,1.48.14,2.21.2,0,4.16,0,8.32.01,12.48,0,5.67,0,11.34,0,17.01Z"/>
          <path class="cls-124" d="M79.5,11.86c6.16.89,12.36.47,18.55.6,3.53.07,7.04-.1,10.51-.72-.83,1.04-1.66,2.08-2.49,3.12-3.12.07-6.25.15-9.37.22-1.77,0-3.54.01-5.31.02-2.99-.57-5.99-.11-8.98-.12-.96-1.04-1.91-2.09-2.87-3.13h-.05Z"/>
          <path class="cls-141" d="M106.07,14.86c.83-1.04,1.66-2.08,2.49-3.12.08-.45.15-.89.22-1.35.08,1.47,1.17,1.3,2.22,1.61,2.51.75,3.94-2.01,6.24-1.64,0,0-.07-.08-.07-.08,0,1.04,0,2.08,0,3.12-2.59.49-4.81,2.07-7.48,2.39-.82.1-.64,1.18-.72,1.89-.96.02-1.92.05-2.88.07,0,0,.03.03.03.03-.01-.98-.02-1.95-.03-2.93Z"/>
          <path class="cls-209" d="M114.95,49.01c-.22,2.37-3.21,5.44-6.04,6.18-.09.18-.22.22-.4.12-.02-1.95,3.88-.45,2.78-2.83-.84-1.83-3.09-.51-4.68-.79-.22-.04-.48.09-.72.14-7.83.01-15.67.03-23.5.04-2-.02-4-.05-6-.07-.99-.03-2.16.67-2.79-.73,1.04,0,2.07.02,3.11.03,10.41-.02,20.83-.12,31.24,0,2,.02,3.15-.66,4.01-2.26-.21,1.06-.63,2.36,1.07,2.37,2,0,1.32-1.5,1.2-2.62l-.1-1.81c.2-.09.38-.21.56-.34.08.85.16,1.7.24,2.56Z"/>
          <path class="cls-95" d="M105.31,65.22c-.71-.02-1.42-.04-2.13-.06-.04-.69-.08-1.38-.12-2.06,1.01-2.04,1.59-4.08,0-6.12-.02-.69-.04-1.39-.06-2.08.85-1.19,1.78-.86,2.72-.13.5.94-.46,2.69,1.37,2.87,1.8.18,1.09-1.44,1.41-2.31.18.1.31.06.4-.12,0,.82,0,1.63,0,2.44-.34,1.01-.52,2.01.23,2.94-1.97.97-3.61,2.22-3.83,4.64Z"/>
          <path class="cls-177" d="M76.4,51.81c2,.02,4,.05,6,.07.05.74.09,1.48.14,2.22-.1,1.96.14,4.2-3.01,3.62h-.01c-.25-1.47.79-3.59-2.2-3.54-1.44.02-.49-1.6-.92-2.37Z"/>
          <path class="cls-96" d="M70.67,10.4c.35-.92-.55-2.31.98-2.76,1.08-.32,1.6.21,2.19,1.2.7,1.16,2.21.58,3.31.5,1.98-.14,2.59.71,2.34,2.51,0,0,.05-.01.05-.01-3.2.92-5.92-1-8.88-1.49v.04Z"/>
          <path class="cls-3" d="M73.6,67.34c-1.33.1-3.23.88-2.83-1.63.33-2.13-1.85-5.71,2.84-5.7,0,0,0,.34,0,.34.05.91.09,1.82.14,2.73-.06,1.44-.12,2.89-.17,4.33l.02-.07Z"/>
          <path class="cls-66" d="M117.24,10.36c-2.3-.37-3.73,2.39-6.24,1.64-1.05-.31-2.14-.13-2.22-1.61.63-1.6,2.03-.79,3.11-.98.9-.16,2.07.42,2.62-.64.54-1.04,1.3-1.57,2.25-1.04,1.01.55.58,1.7.48,2.63Z"/>
          <path class="cls-85" d="M109.14,60.57c-.75-.93-.57-1.92-.23-2.93,3.34-.66,5.78,1.06,8.11,3.08-.69.02-1.37.04-2.06.06-1.94-.07-3.88-.14-5.82-.2Z"/>
          <path class="cls-119" d="M73.62,60.34s0-.34,0-.34c-.13-1.25-.25-2.41,1.64-2.28,1.42.1,2.85,0,4.27,0,0,0,.01,0,.01,0-.01,1.02.17,2.09-.77,2.86-1.72-.08-3.43-.16-5.15-.24Z"/>
          <path class="cls-57" d="M113.62,70.24c.55-.62,1.11-1.24.5-2.13-.48-1.06-1.55-.32-2.25-.73-.03-1.26-.06-2.52-.1-3.78.86-.85,1.8-.6,2.75-.19.12,1.4.25,2.8.37,4.21.08.4.16.8.24,1.19-.05.5-.1,1-.15,1.51-.45-.03-.91-.05-1.36-.08Z"/>
          <path class="cls-202" d="M114.9,67.62c-.12-1.4-.25-2.8-.37-4.2.15-.88.29-1.76.44-2.64.69-.02,1.37-.04,2.06-.06.7,1.47.09,3.05.36,4.55.4,2.17-1,2.27-2.49,2.35Z"/>
          <path class="cls-7" d="M73.65,48.84c-3.63.96-2.81-1.78-3.03-3.66,0,0,.04-.04.04-.04.24-.04.49-.09.73-.13.87.62,1.78,1.1,2.89,1.05-.73.81-.66,1.83-.72,2.82l.08-.04Z"/>
          <path class="cls-58" d="M114.95,49.01c-.08-.85-.16-1.7-.24-2.55.8-.49,1.43-1.29,2.48-1.28,0,0,.1.07.1.07.05,1.77.86,4.02-2.34,3.76Z"/>
          <path class="cls-18" d="M76.72,51.12c-1.04,0-2.07-.02-3.11-.03.01-.75.02-1.5.04-2.24,0,0-.08.04-.08.04,1.72-.21,3.29-.2,3.16,2.23Z"/>
          <path class="cls-140" d="M82.43,67.28c-2.76,1.74-5.8.4-8.68.83-.05-.26-.1-.52-.15-.77,0,0-.02.07-.02.07.99-.03,1.97-.06,2.96-.1,1.96,0,3.93-.02,5.89-.03Z"/>
          <path class="cls-178" d="M73.46,68.84c.06.46.12.92.17,1.38-1.07,0-2.13,0-3.41,0,.67-1.77,2.12-1.18,3.24-1.38Z"/>
          <path class="cls-46" d="M114.98,70.32c.05-.5.1-1,.15-1.51.62.18,1.73-.2,1.63.85-.08.94-1.13.56-1.79.66Z"/>
          <path class="cls-107" d="M70.66,10.36c2.96.5,5.69,2.41,8.88,1.49.96,1.04,1.91,2.09,2.87,3.13-.19,2.18.62,3.27,2.94,2.72.1.09.19.18.28.27-.04.91-.09,1.82-.13,2.73-.99-.75-1.09-2.72-3-2.2-1.7-.36-2.92-1.34-3.73-2.87-2.83-.05-5.17-1.78-7.85-2.32-.08-.99-.17-1.98-.25-2.97Z"/>
          <path class="cls-200" d="M70.91,13.33c2.69.54,5.02,2.27,7.85,2.32.1,1.54.13,3.03-2.08,2.9-1.76-1.52-3.84-.51-5.76-.74,0-1.49,0-2.99,0-4.48Z"/>
          <path class="cls-204" d="M71.4,45.02c-.24.04-.49.09-.73.13.07-6.64.13-13.28.2-19.92.82.6,1.75.75,2.74.66,0,1.49,0,2.98.01,4.46-1.67.75-2.58,1.83-2.34,3.88.25,2.16.1,4.36.12,6.54,0,1.42,0,2.83,0,4.25Z"/>
          <path class="cls-38" d="M73.6,25.89c-.99.09-1.92-.06-2.74-.66.02-2.47.04-4.95.06-7.42,1.92.22,4-.78,5.76.74,0,0-.21-.03-.21-.03-.85-.01-1.7-.03-2.55-.03-1.25,0-2.45-.04-2.56,1.77-.1,1.73.26,2.91,2.3,2.76-.03.97-.06,1.94-.08,2.9l.02-.03Z"/>
          <path class="cls-125" d="M85.44,62.91c-.05.5-.1.99-.14,1.49-.81.67-1.78.79-2.78.79.24-2.76-1.99-3.49-3.76-4.6.94-.77.76-1.84.77-2.86,3.15.58,2.91-1.67,3.01-3.63,1.01.04,2.02.08,3.03.12-.02.93-.03,1.86-.05,2.79,0,0-.15.06-.15.06-2.7,1.98-1.67,3.91.06,5.84Z"/>
          <path class="cls-127" d="M114.96,60.78c-.15.88-.29,1.76-.44,2.64-.95-.41-1.89-.66-2.75.19-.95-.42-2.31-1.24-2.59.31-.46,2.55-2.16,1.98-3.73,2.02-.07-.23-.12-.47-.15-.71.22-2.42,1.86-3.67,3.83-4.64,1.94.07,3.88.14,5.82.2Z"/>
          <path class="cls-150" d="M78.76,60.59c1.76,1.11,4,1.84,3.76,4.6-.06.24-.12.48-.19.72-1.12-.07-2.55.47-2.81-1.35-.29-2.05-1.77-1.5-3.03-1.44-.91-.01-1.83-.02-2.74-.04-.05-.91-.09-1.82-.14-2.73,1.72.08,3.43.16,5.15.24Z"/>
          <path class="cls-105" d="M91.39,67.46c-.07-4.33.6-5.14,3.66-4.48,2.66.57.93,3.17,2.08,4.43-.23-.03-.46-.04-.69-.01-1.46.03-2.92.05-4.38.08l-.34-.09-.34.08Z"/>
          <path class="cls-135" d="M76.5,63.11c1.26-.05,2.74-.61,3.03,1.44.25,1.82,1.69,1.28,2.81,1.35.03.46.07.92.1,1.38-1.96,0-3.93.02-5.89.03-.01-1.4-.03-2.8-.04-4.2Z"/>
          <path class="cls-5" d="M105.46,65.93c1.57-.03,3.27.54,3.73-2.02.28-1.54,1.64-.73,2.59-.31.03,1.26.06,2.52.09,3.77-2.19-.12-4.48.68-6.53-.71.04-.25.07-.49.11-.74Z"/>
          <path class="cls-191" d="M96.45,67.39c.23-.03.46-.02.69.01,3.24,1.18,4.99-.24,5.36-4.36,0,0,.29-.02.29-.02l.28.06c.04.69.08,1.38.12,2.06-.62,4.81-1.73,5.41-6.62,3.58-.04-.45-.08-.89-.12-1.34Z"/>
          <path class="cls-23" d="M85.54,66.57c2.21-.65,3.44,2.38,5.71,1.5-.87,2.87-3.16,1.16-4.7,1.24-1.87.09-1.01-1.67-1.01-2.74Z"/>
          <path class="cls-187" d="M96.45,67.39c.04.45.08.89.12,1.34-1.9,1.01-3.89,2.33-4.5-1.26,1.46-.03,2.92-.05,4.38-.08Z"/>
          <path class="cls-29" d="M105.35,66.67c2.05,1.39,4.34.59,6.53.71.69.41,1.76-.33,2.24.73-2.09,0-4.17,0-6.26,0-1.11,0-2.3.12-2.51-1.44Z"/>
          <path class="cls-186" d="M117.18,31.06c0,3.23,0,6.46,0,9.69-1.93-.3-3.08,2.11-5.11,1.48.41-2.91-.76-4.24-3.74-3.76-.3-2.64,2.43-.87,3.08-2.13.81-3.57-.84-5.91-4.2-6.02-2.59-.08-5.22-.36-6.9,2.28-.12-.59-.17-1.68-.38-1.71-4.03-.6-2.87-3.68-2.92-6.1-.06-3.04.05-6.09.09-9.14,1.81.63,4.92-2.02,5.34,2.12-1.21.18-2.86-.24-2.82,1.82.03,1.43,1.2,1.43,2.08,1.21,2.1-.51,1.12-1.88.69-3.06,1.24.01,2.48.02,3.72.03,0,0-.03-.03-.03-.03.26,3.71,2.97,4.62,5.95,5.21,0,0-.04-.04-.04-.04-.48,2.45.76,3.21,2.96,3.02l-.03-.02c.63,1.76-1.78,4.86,2.25,5.13ZM104.13,27.21c1.11.02,1.89-.31,1.95-1.61.05-1.17-.33-1.87-1.62-1.87-1.09,0-1.94.18-1.96,1.54-.02,1.16.39,1.88,1.64,1.94Z"/>
          <path class="cls-4" d="M108.96,17.69c.07-.71-.11-1.79.72-1.89,2.67-.32,4.9-1.9,7.48-2.39-.02,1.5-.03,2.99-.05,4.49-3.16-.37-5.95-.27-5.38,4.18-.57-1.69-.63-3.7-2.78-4.38Z"/>
          <path class="cls-26" d="M111.74,22.08c-.58-4.45,2.22-4.55,5.38-4.18.01,1.69.02,3.37.03,5.05-.76.04-1.53.08-2.29.11-.95-.04-1.91-.09-2.86-.13,0,0,.04.04.04.04-.1-.3-.19-.6-.29-.89Z"/>
          <path class="cls-60" d="M112.05,42.22c2.03.64,3.18-1.78,5.11-1.48,0,1.48.01,2.95.02,4.43-1.05-.01-1.69.79-2.48,1.28-.18.13-.36.24-.56.33-.7-.07-1.41-.14-2.11-.21-.08-.26-.17-.51-.25-.77,0-.78,0-1.56,0-2.34.09-.42.18-.84.26-1.26Z"/>
          <path class="cls-156" d="M117.18,31.06c-4.03-.26-1.61-3.37-2.25-5.13.73-.01,1.47-.03,2.2-.04.02,1.72.03,3.45.05,5.17Z"/>
          <path class="cls-146" d="M117.12,25.89c-.73.01-1.46.03-2.2.04,0,0,.03.02.03.02-.03-.96-.07-1.92-.1-2.88.76-.04,1.53-.08,2.29-.11,0,.98-.02,1.96-.02,2.94Z"/>
          <path class="cls-89" d="M97.09,15.66c-.13-.19-.26-.38-.39-.58,3.13-.07,6.25-.15,9.37-.22.01.98.02,1.95.03,2.93-1.24-.01-2.48-.02-3.72-.03l.04.03c-.42-4.15-3.53-1.49-5.34-2.12Z"/>
          <path class="cls-152" d="M91.39,15.1c.13.2.09.37-.11.49-1.95.77-5.22-2.16-5.93,2.11-2.32.55-3.13-.54-2.94-2.72,2.99,0,5.99-.45,8.98.12Z"/>
          <path class="cls-108" d="M111.74,22.08c.1.3.19.6.29.89-2.98-.59-5.69-1.5-5.95-5.21.96-.02,1.92-.05,2.88-.07,2.15.68,2.21,2.69,2.78,4.38Z"/>
          <path class="cls-129" d="M76.42,45.8c.51,3.33,3.42,3.57,5.66,3.64,7.95.26,15.92.18,23.87.05,2.33-.04,4.62-.75,6.09-2.91.7.07,1.41.14,2.11.21.03.6.06,1.21.1,1.81-.76.08-1.51.17-2.27.25-.86,1.6-2.01,2.28-4.01,2.26-10.41-.12-20.83-.02-31.24,0,.13-2.43-1.44-2.44-3.16-2.23.06-.98-.01-2.01.72-2.82.71-.09,1.42-.18,2.13-.27Z"/>
          <path class="cls-10" d="M85.58,54.22c-1.01-.04-2.02-.08-3.03-.12-.05-.74-.09-1.48-.14-2.22,7.83-.01,15.67-.03,23.5-.04-.06.97-.11,1.95-.17,2.92-.94-.73-1.87-1.07-2.72.13-1.79-1.28-3.83-.5-5.74-.71-.77-.29-1.54-.58-2.31-.87-.65.04-1.29.08-1.94.12-.62.27-1.25.54-1.87.81-1.86,0-3.71-.01-5.57-.02Z"/>
          <path class="cls-181" d="M105.73,54.76c.06-.97.11-1.95.17-2.92.24-.05.49-.18.72-.14,1.59.27,3.84-1.04,4.68.79,1.09,2.38-2.8.87-2.78,2.83-.32.88.39,2.49-1.41,2.32-1.83-.18-.87-1.92-1.37-2.87Z"/>
          <path class="cls-145" d="M111.98,48.86c.76-.08,1.51-.17,2.27-.25.12,1.12.8,2.63-1.2,2.62-1.71,0-1.28-1.31-1.07-2.37Z"/>
          <path class="cls-103" d="M97.27,54.18c1.92.21,3.96-.57,5.74.71.02.69.04,1.39.05,2.08-.27.89.29,1.95-.56,2.71-.25-.95.39-2.39-1.23-2.6-1.27-.16-2.49-.33-3.54,1.02-1.89,2.44-4.18,2.88-6.55.5.09-.08.19-.16.29-.24,1.72-.32,3.97,1.46,5.06-1.29l.74-2.89Z"/>
          <path class="cls-62" d="M102.5,59.68c.85-.77.3-1.83.56-2.71,1.58,2.04,1,4.08,0,6.12,0,0-.28-.06-.28-.06,0,0-.29.02-.29.02-.91-.54-2.66-.01-2.51-1.91.13-1.66,1.72-.89,2.52-1.45Z"/>
          <path class="cls-134" d="M76.5,63.11c.01,1.4.03,2.8.04,4.2-.99.03-1.97.06-2.96.1.06-1.44.12-2.89.17-4.33.91.01,1.83.03,2.74.04Z"/>
          <path class="cls-90" d="M76.42,45.8c-.71.09-1.42.18-2.13.27-1.11.05-2.02-.43-2.89-1.05,0-1.42,0-2.83,0-4.25,1.93-.27,3.09,2,5.08,1.54.05.69.1,1.39.15,2.08-.07.47-.14.94-.21,1.4Z"/>
          <path class="cls-114" d="M76.47,42.31c-1.99.46-3.15-1.81-5.08-1.54-.02-2.18.13-4.38-.12-6.54-.24-2.05.67-3.12,2.34-3.88,1.25-1.22.35-3.52,2.21-4.43,1.06-.81.62-1.98.73-3.03l-.05.03c3.04-.06,4.51-2.25,5.99-4.42,1.91-.52,2.01,1.45,3,2.2,1-.22,2.59.88,2.82-1.05.27-2.23-1.56-1.48-2.69-1.69-.09-.09-.18-.18-.28-.27.71-4.27,3.98-1.34,5.93-2.11.02,2.94.15,5.87.03,8.8-.11,2.55,1.49,6.1-3.23,6.42-.15.01-.24,1.1-.35,1.68-1.86-1.94-4.11-2.31-6.75-2.27-3.14.05-3.97,2.18-4.41,4.36-.65,3.24,2.29,1.86,3.7,2.44,0,0-.04-.02-.04-.02-.01.5-.03,1-.04,1.51-2.88-.36-4.35.59-3.47,3.73l-.24.07ZM85.55,25.47c.01-.98-.26-1.65-1.43-1.69-1.23-.04-1.84.42-1.82,1.69.02.99.32,1.65,1.45,1.7,1.22.05,1.87-.43,1.8-1.7Z"/>
          <path class="cls-173" d="M82.49,18.51c-1.48,2.18-2.95,4.37-5.99,4.42-.01-1.47-.02-2.94-.04-4.41,0,0,.21.03.21.03,2.21.13,2.18-1.37,2.08-2.9.81,1.53,2.03,2.51,3.73,2.87Z"/>
          <path class="cls-151" d="M75.82,25.93c-1.87.91-.96,3.21-2.21,4.43,0-1.49,0-2.98-.01-4.46,0,0-.02.03-.02.03.75,0,1.49,0,2.24.01Z"/>
          <path class="cls-15" d="M76.47,18.52c.01,1.47.02,2.94.04,4.41,0,0,.05-.03.05-.03-.96.04-1.92.07-2.88.11-2.04.15-2.4-1.03-2.3-2.76.1-1.8,1.3-1.77,2.56-1.77.85,0,1.7.02,2.55.03Z"/>
          <path class="cls-125" d="M73.67,23.02c.96-.04,1.92-.07,2.88-.11-.11,1.04.33,2.21-.73,3.03-.75,0-1.49,0-2.24-.01.03-.97.06-1.94.08-2.9Z"/>
          <path class="cls-201" d="M85.58,54.22c1.86,0,3.71.01,5.57.02.12.95.24,1.89.35,2.84-.01.43-.02.86-.03,1.29-.1.08-.19.16-.29.24-1.58-1.62-3.57-1.77-5.65-1.59.02-.93.03-1.86.05-2.79Z"/>
          <path class="cls-168" d="M85.44,62.91c-1.74-1.93-2.76-3.86-.06-5.84.39.91-.56,2.33.91,2.78.98.3,2.35.02,2.07,1.7-.3,1.8-1.97.85-2.92,1.35Z"/>
          <path class="cls-165" d="M100.23,36.27c-.43-1.23-.4-2.45.06-3.66,1.69-2.64,4.31-2.36,6.9-2.28,3.35.11,5,2.45,4.2,6.02-1.02-.02-2.04-.05-3.06-.07-.32-1.43.1-3.31-2.43-3.18-2.35.12-1.66,1.94-2.04,3.18-1.21,0-2.42,0-3.64,0Z"/>
          <path class="cls-44" d="M100.23,36.27c1.21,0,2.42,0,3.64,0,1.49.78,2.98.82,4.47,0,1.02.02,2.04.05,3.06.07-.65,1.25-3.38-.51-3.08,2.13-.04.48-.08.96-.11,1.44,0,0,.02-.02.02-.02-1.42.48-2.85.37-4.29.05l.02.02c.71-3.5-1.67-3.02-3.75-2.94.01-.25.02-.5.03-.75Z"/>
          <path class="cls-49" d="M104.12,27.21c-1.24-.05-1.66-.78-1.64-1.94.03-1.36.87-1.55,1.96-1.54,1.29,0,1.67.7,1.62,1.87-.06,1.3-.84,1.63-1.95,1.61Z"/>
          <path class="cls-112" d="M102.39,17.76c.43,1.18,1.41,2.55-.69,3.06-.88.21-2.05.22-2.08-1.21-.04-2.06,1.6-1.64,2.82-1.82,0,0-.04-.03-.04-.03Z"/>
          <path class="cls-126" d="M108.2,39.9c.04-.48.08-.96.11-1.44,2.98-.48,4.15.85,3.74,3.76-.09.42-.17.84-.26,1.26-1.4-.98-.75-4.04-3.59-3.58Z"/>
          <path class="cls-214" d="M114.86,23.06c.03.96.07,1.92.1,2.88-2.2.19-3.44-.56-2.96-3.02.95.04,1.91.09,2.86.13Z"/>
          <path class="cls-167" d="M108.2,39.9c2.84-.46,2.19,2.59,3.59,3.58,0,.78,0,1.56,0,2.33-.76-1.48-2.15-1.45-3.52-1.48.02-.23.02-.47,0-.7-.12-.47-.24-.95-.35-1.42.1-.78.2-1.55.3-2.33l-.02.02Z"/>
          <path class="cls-183" d="M80.26,37.03c-1.41-.58-4.35.81-3.7-2.44.44-2.19,1.27-4.32,4.41-4.36,2.64-.04,4.89.33,6.75,2.27,1.18,1.13.58,2.48.46,3.78-1.12,0-2.25,0-3.37,0-.17-.64-.34-1.27-.5-1.91-.63-1.79-2.13-1.46-3.21-.94-1.31.64-.77,2.01-.49,3.15-.2.08-.32.23-.34.45Z"/>
          <path class="cls-47" d="M84.31,34.38c.17.64.34,1.27.5,1.91.99,1.06,2.28.27,3.39.56,0,.54,0,1.08,0,1.62-1.25.35-3.23-.92-3.5,1.6-.1.19-.19.38-.27.59-.2.55-.39,1.09-.59,1.64-1.07-.03-2.14-.05-3.21-.08,0,0-.33-.02-.33-.02-.1-.68-.19-1.37-.29-2.05.11-.12.24-.18.39-.2.48.08.96.19,1.44.23,1.15.08,2.18.06,2.29-1.56.12-1.73-.97-1.69-2.11-1.68-.61,0-1.22.06-1.82.1,0,0,.04.02.04.02.02-.22.14-.37.34-.45,1.56-.18,3.74.67,3.71-2.21Z"/>
          <path class="cls-99" d="M100.19,37.02c2.08-.09,4.46-.56,3.75,2.94-1.84-.23-1.65,2.94-3.76,2.27v-5.21Z"/>
          <path class="cls-75" d="M93.38,43.61c.07-.19.11-.39.1-.59,1.4-.6.62,1.47,1.64,1.34,1.75-.05,1.52,1.04,1.23,2.16-1.59-.81-4.72,2.04-4.91-2.09.69-.16,1.69.39,1.94-.82Z"/>
          <path class="cls-25" d="M84.71,40.06c.27-2.52,2.25-1.24,3.5-1.6.02,1.2.04,2.4.05,3.6-1.93.67-1.74-2.46-3.55-2Z"/>
          <path class="cls-169" d="M76.63,44.39c-.05-.69-.1-1.39-.15-2.08,0,0,.24-.07.24-.07.43-.52.86-1.03,1.3-1.55.06,1.59,1.08,1.71,2.31,1.49,0,0,.33.02.33.02-.06.62-.11,1.23-.17,1.85-1.29.11-2.57.23-3.86.34Z"/>
          <path class="cls-182" d="M100.19,42.22c2.11.67,1.92-2.5,3.76-2.27,0,0-.02-.02-.02-.02.11.77.22,1.53.33,2.3-.26.48-1.29.74-.43,1.54.01.21.04.42.1.63-1.87.37-2.62-1.22-3.74-2.17Z"/>
          <path class="cls-13" d="M92.67,41.49c-.65-.6-.87-1.33.18-1.51,1.01-.17,2.5-.32,3.06.25.81.81-.1,1.9-.86,2.67-.12-1.62-1.23-1.56-2.39-1.41Z"/>
          <path class="cls-65" d="M84.71,40.06c1.82-.46,1.62,2.67,3.55,2-.35,1.01-1.38,1.11-2.12,1.6-.9-.82-1.8-1.63-1.7-3.01.08-.2.16-.4.27-.59Z"/>
          <path class="cls-148" d="M84.45,40.65c-.11,1.39.8,2.2,1.7,3.01-1.65,1.17-3.42.85-5.2.44.76-.95,2.98.46,2.92-1.82.2-.55.39-1.09.59-1.64Z"/>
          <path class="cls-71" d="M83.86,42.28c.07,2.28-2.16.87-2.92,1.82,0,0-.24,0-.24,0,0,0-.23-.06-.23-.06.06-.62.11-1.23.17-1.85,1.07.03,2.14.05,3.21.08Z"/>
          <path class="cls-195" d="M96.35,46.52c.29-1.12.52-2.21-1.23-2.16-.02-.25-.04-.49-.06-.74.91.38,2.1-1.19,2.54-.08.35.87.01,2.34-1.26,2.98Z"/>
          <path class="cls-1" d="M93.38,43.61c-.25,1.21-1.25.66-1.94.82-.51-.15-1.33-.04-1.19-.87.09-.52.64-.39,1.12-.26.65.18,1.34.21,2.01.31Z"/>
          <path class="cls-137" d="M95.07,43.62c.02.25.04.49.06.74-1.02.13-.24-1.94-1.64-1.34-.27-.51-.54-1.02-.81-1.53,1.16-.15,2.27-.21,2.39,1.41-.09.24-.09.48,0,.72Z"/>
          <path class="cls-34" d="M103.92,44.39c-.05-.21-.09-.42-.1-.63,1.48-.04,2.97-.09,4.45-.13.02.24.02.47,0,.7-1.45.02-2.9.04-4.35.06Z"/>
          <path class="cls-111" d="M88.21,36.85c-1.11-.3-2.4.5-3.39-.56,1.12,0,2.25,0,3.37,0,.1.19.1.38.02.57Z"/>
          <path class="cls-205" d="M91.5,57.08c-.12-.95-.24-1.89-.35-2.84.62-.27,1.25-.54,1.87-.81-.13,1.08-.48,2.59,1.13,2.5,1.69-.1.88-1.62.81-2.62.77.29,1.54.58,2.31.87-.25.97-.49,1.93-.74,2.89-1.68,0-3.35,0-5.03,0Z"/>
          <path class="cls-12" d="M94.96,53.31c.07,1,.87,2.53-.81,2.62-1.61.09-1.25-1.42-1.13-2.5.65-.04,1.29-.08,1.94-.12Z"/>
          <path class="cls-175" d="M91.5,57.08c1.68,0,3.35,0,5.03,0-1.1,2.76-3.35.97-5.06,1.29.01-.43.02-.86.03-1.29Z"/>
          <path class="cls-139" d="M85.54,25.46c.07,1.28-.59,1.76-1.8,1.7-1.13-.05-1.43-.71-1.45-1.7-.02-1.27.59-1.73,1.82-1.69,1.17.04,1.44.71,1.43,1.68Z"/>
          <path class="cls-111" d="M80.23,37.01c.61-.03,1.22-.09,1.82-.1,1.14-.01,2.22-.05,2.11,1.68-.11,1.62-1.14,1.64-2.29,1.56-.48-.03-.96-.15-1.44-.23-.08-.47-.16-.94-.24-1.41.01-.5.03-1,.04-1.51Z"/>
          <path class="cls-142" d="M80.18,38.51c.08.47.16.94.24,1.41-.16.02-.29.09-.39.2-.69.13-1.49-.13-2.02.57-.43.52-.86,1.03-1.3,1.55-.88-3.14.59-4.09,3.47-3.73Z"/>
          <path class="cls-50" d="M108.34,36.27c-1.49.82-2.98.78-4.47,0,.38-1.25-.3-3.06,2.04-3.18,2.53-.13,2.11,1.75,2.43,3.18Z"/>
          <path class="cls-143" d="M104.26,42.22c-.11-.77-.22-1.53-.33-2.3,1.43.33,2.86.43,4.29-.05-.1.78-.2,1.55-.29,2.33-1.22,0-2.44,0-3.66.02Z"/>
          <path class="cls-193" d="M104.26,42.22c1.22,0,2.44-.01,3.66-.02.12.47.23.95.35,1.42-1.48.04-2.97.09-4.45.13-.86-.8.18-1.06.43-1.54Z"/>
          <path class="cls-131" d="M84.31,34.38c.03,2.88-2.15,2.02-3.71,2.21-.27-1.13-.81-2.51.5-3.14,1.08-.53,2.58-.85,3.21.94Z"/>
          <path class="cls-77" d="M78.01,40.69c.53-.7,1.33-.43,2.02-.57.1.68.19,1.37.29,2.05-1.23.22-2.24.11-2.31-1.49Z"/>
        </g>
      </g>
      <g>
        <polygon class="cls-179" points="16.87 80.04 25.17 54.7 21.02 37.22 22.35 12.19 41.46 3.59 62.06 7.74 70.65 28.19 61.46 56.19 67.39 77.07 65.46 83.06 25.31 84 16.87 80.04"/>
        <g>
          <path class="cls-154" d="M60.26,3.78l.03-2.8h6.92c-.03.35-.05.69-.08,1.04-1.92-.02-3.93-.61-5.81.56,1.12,2.48,4.03.08,4.84,2.42-2.09.11-5.36-1.77-4.8,2.83-.36.02-.71.04-1.07.06-.67,0-1.34.02-2,.03-.05-.24-.12-.48-.21-.72,2.18-.21,2.47-1.64,2.19-3.43Z"/>
          <path class="cls-30" d="M51.4.99c.05.96.1,1.92.14,2.87-.44.07-.87.15-1.31.22.42-2.43-1.35-2.12-2.74-2.12-3.23,0-6.47.08-9.7.13-.08-.37-.15-.74-.23-1.1,4.61,0,9.22,0,13.84,0Z"/>
          <path class="cls-93" d="M27.67.99c.02.31.04.62.05.94-1.98.03-3.96.05-5.94.08-.01-.34-.03-.68-.04-1.02h5.93Z"/>
          <path class="cls-28" d="M72.01,83.9c-18.38.02-36.76.03-55.14.05-.08-.6-.16-1.2-.23-1.8.05-.32.11-.65.16-.98q8.25-.25,7.87-5.93c.06-2.01.12-4.02.17-6.03.94-.02,1.88-.04,2.81-.06.12,1.6.25,3.2.37,4.81q-.1,6.96,6.61,7.11c1.29.03,2.59-.09,3.89-.14,1.6.41,2.72-.18,2.36-1.86-1.27-5.91,2.62-5.93,6.57-5.98.03,1.97.14,3.94.08,5.91-.07,2.31,1.3,2.26,2.91,1.94,1.62-.02,3.25-.04,4.87-.06,1.01.01,2.02.03,3.03.04,4.43-1.57,1.39-4.97,1.84-7.52.13-1.45.26-2.9.38-4.35.95.06,1.9.13,2.85.19.36,3.89-1.01,7.85.48,11.69,2.77.05,5.53.1,8.3.15l-.09-.09c-.03.97-.06,1.94-.09,2.9Z"/>
          <path class="cls-166" d="M61.36,7.84c-.56-4.6,2.71-2.72,4.8-2.83-.51,2.65,2.28,1.71,3.13,2.87-.44,2.74,1.56,2.33,3.12,2.32.87,0,2.16.51,2.42-.8.08-.4-.98-1.03-1.52-1.55,2.54-.61,3.46,3.08,6.07,2.3-.03,1.15-.07,2.31-.1,3.47-.02,1.1-.05,2.2-.07,3.29,0,1.72-1.04,2.17-2.55,2.18-1.61.02-2.27.95-2.31,2.53-.04,1.72.84,2.38,2.41,2.28,2.12-.14,2.4,1.18,2.34,2.82-.16.19-.24.41-.24.67-2.59.05-5.22.52-7.71-.66,0,0,0,0,0,0,.21-2.15-2.54-3.13-1.93-5.61,1.69-6.89-3.04-10.11-7.93-13.15l.09-.11ZM74.06,14.97c-.7-.76-.22-2.83-2.52-2.55-2.76.33,1.77,2.93-1.09,3.5-.46.09.21,1.81,1.46,1.7,1.31-.11,1.98-1,2.15-2.65Z"/>
          <path class="cls-101" d="M9.58,10.15c1.09-.09,2.18-.18,3.27-.27,0,0,.1-.25.1-.25,2.28,1.96,4.53,1.98,6.73-.14.11-.52.21-1.04.32-1.56,1.56.32,3.11.64,4.67.97.12.32.13.64.04.97-2.2-.23-2.98.99-3.04,2.95-.29,0-.58.02-.87.04-2.01.14-2.07,1.58-2.06,3.08.02,2.54.02,5.08.02,7.62-.75,1.03-1.5,2.06-2.25,3.09-2.15-.01-4.31-.02-6.46-.03l-.25.13c.11-.67.22-1.34.32-2.01,5.36-.28,5.96-1.33,3.35-5.88-4.39.91-4.02-2.6-4.75-5.1.5-.88,1.64-1.56.83-2.82,0-.26.01-.52.03-.79ZM13.74,14.31c-.14-.27-.34-.65-.54-1.04-.33.19-.93.38-.94.58-.02.38.22.9.53,1.13.47.35.78-.03.95-.68Z"/>
          <path class="cls-100" d="M22.87,57.31c-.05-.65-.38-1.48-.1-1.91,2.76-4.18,1.01-5.34-3.22-5.05-.35.02-.75-.5-1.12-.75,1.45-1.79-2.16-6.29,3.22-5.99.02,2.61.85,4.18,3.95,3.77,1.69-.22,3.47.22,5.21.37-.13.23-.13.47,0,.7-.01.67-.02,1.33-.04,2-.09.29-.19.57-.3.84-2.09-.66-3.62-.21-3.75,2.22-.1,1.9-.76,3.49-1.94,4.91-.64-.37-1.28-.74-1.91-1.11Z"/>
          <path class="cls-197" d="M79.97,29.62c-.11,2.23-.41,4.47-.27,6.69.19,2.92-1.04,3.76-3.69,3.1-.27-3.43.24-7.37-5.27-6.9-1.77.15-2.39-1.29-2.55-2.86.05-.68.11-1.37.16-2.05.93-.3,1.85-.59,2.78-.89,0,0,0,0,0,0,1.3,5.28,5.63,1.89,8.41,2.93l.42-.02Z"/>
          <path class="cls-203" d="M70.29,43.64c-.3,3.09,1.94,7.68-4.54,6.96-2.01-.22-1.68,1.98-1.02,2.89,1.13,1.55.78,3.1.78,4.71-.69.01-1.39.03-2.08.04l-1.04-1.94c-.52-2.54,1.02-6.49-4.05-5.93-.12-.72-.25-1.45-.37-2.17,1.15-1.19,2.69-1.07,4.02-.83,3.24.58,4.52-1.16,5.22-3.86,1.02.04,2.05.08,3.07.13Z"/>
          <path class="cls-56" d="M62.39,56.31c.35.65.69,1.29,1.04,1.94,1.56,2,3.13,4,6.16,2.96.87.25,2.19-.54,2.47,1.08-2.39-.41-2.94.96-2.85,2.95-2.01,1.42-3.6,3.31-6.14.08-1.75-2.23-1.36,1.7-2.66,1.81l-.43-.16c.66-3.57.53-7.15.2-10.73l-.15-2.74c1.55.3.97,2.38,2.36,2.82Z"/>
          <path class="cls-206" d="M12.99,39.46c-2.98.67-4.17-.43-3.86-3.54.21-2.07-.08-4.2-.14-6.3,0,0,.43.02.43.02,3.88.56,7.35-.48,10.49-2.74-.54,2.01,1.22,4.87-2.14,5.85-6.28-1.1-4.46,3.56-4.77,6.71Z"/>
          <path class="cls-88" d="M70.29,43.64c-1.02-.04-2.05-.08-3.07-.13.05-.63-.14-1.49.2-1.87,3.28-3.73,3.89-7.08-1.09-9.86.21-1.08.89-1.74,1.88-2.14.16,1.57.78,3.01,2.55,2.86,5.52-.47,5.01,3.47,5.27,6.9-.24.17-.51.25-.8.21-3.32-.59-3.23,1.64-3.18,3.83-.58.06-1.17.13-1.75.19Z"/>
          <path class="cls-72" d="M12.99,39.46c.31-3.14-1.51-7.81,4.77-6.71.76,1.02,1.85.83,2.89.79-3.93,1.28-3.54,3.76-.92,5.62,1.87,1.33,2.04,2.64,1.92,4.45-5.38-.31-1.77,4.2-3.22,5.99-1.28-1.87.98-4.64-1.58-6.17.05-2.25.11-4.5-3.27-3.8l-.34.08-.26-.24Z"/>
          <path class="cls-92" d="M9.56,10.94c.81,1.26-.33,1.95-.83,2.82-2.23.18-1.78,1.81-1.77,3.24,0,3.24-.02,6.47-.03,9.71l-.15.1c-3.79-1.77-4.79-6.11-2.34-10.22,1.5-.23,1.63-1.3,1.41-2.47-.24-1.26-1.25-1.19-2.22-1.1-1.03-.76-.97-1.54-.05-2.34,2,.09,3.99.17,5.99.26Z"/>
          <path class="cls-6" d="M69.21,65.23c-.09-1.99.46-3.36,2.85-2.95.04,4.29.07,8.58.11,12.86,0,0,.03-.1.03-.1-.98-.05-1.95-.09-2.93-.14-.05-1.95-.1-3.89-.15-5.84.03-1.28.06-2.56.09-3.84Z"/>
          <path class="cls-130" d="M83.17,13.88c2.22,3.68,2.38,7.51,1.13,11.56-.41,1.34-1.24,1.25-2.19,1.31,0,0-.08-.07-.08-.07-.05-3.65-.09-7.29-.14-10.94.02-.63.05-1.26.07-1.89.4,0,.81.02,1.21.03Z"/>
          <path class="cls-97" d="M83.17,13.88c-.4,0-.81-.02-1.21-.03-.9-.08-1.79-.17-2.69-.25.03-1.15.07-2.31.1-3.46,1.11-.01,2.22-.05,3.33-.03.91.02,2.01-.23,2.29,1.07.31,1.48-.24,2.45-1.82,2.7Z"/>
          <path class="cls-118" d="M16.79,81.17c-.05.32-.11.65-.16.98-.27-.34-.55-.67-.82-1.01v-6.11c-.01-3.55.09-7.11-.06-10.65-.1-2.29.72-3.32,3.01-3.13,0,.34.01.69.02,1.03-2.23,0-2.1,1.61-2.09,3.1.03,3.29.08,6.57.13,9.86,0,.31.04.61.13.9,0,1.28-.02,2.56-.03,3.84-.04.4-.08.79-.12,1.19Z"/>
          <path class="cls-22" d="M69.29,7.88c-.85-1.17-3.64-.22-3.13-2.87-.81-2.33-3.72.06-4.84-2.42,1.87-1.17,3.89-.58,5.81-.56-1.26,3.1,3.52,2.2,3.13,4.73-.32.38-.65.75-.97,1.13Z"/>
          <path class="cls-122" d="M15.86,6.9c-.36-5.28,3.93-1.74,5.69-3.01.46.06.93.12,1.39.18-.09.29-.11.58-.06.88-.41,1.45-1.15,2.49-2.89,2.23l-4.14-.28Z"/>
          <path class="cls-190" d="M18.78,62.28c0-.34-.01-.69-.02-1.03,0,0,0,0,0,0,1.3-1.02,2.61-2.05,3.91-3.07.02-.3.09-.59.21-.87.64.37,1.28.74,1.91,1.11-.33,3.35-5.31,3.14-5.22,6.81-.95-.8-.73-1.91-.79-2.95Z"/>
          <path class="cls-159" d="M15.8,75.02c0,2.04,0,4.07,0,6.11-.93-.09-1.85-.18-2.78-.27.44-2.18-1.87-5.66,2.77-5.84Z"/>
          <path class="cls-136" d="M72.16,75.15c5.16-.15,2.13,3.76,2.88,5.8-.98.02-1.96.03-2.94.05l.09.09c0-2.01,0-4.02,0-6.04l-.03.1Z"/>
          <path class="cls-63" d="M13.03,80.87c.93.09,1.85.18,2.78.27.27.34.55.67.82,1.01.08.6.16,1.2.23,1.8-2.37-.02-4.74-.03-7.11-.05.08-.64.17-1.29.25-1.93,1.14,0,2.33.15,3.02-1.1Z"/>
          <path class="cls-117" d="M72.1,80.99c.98-.02,1.96-.03,2.94-.05.99,1.43,2.5.86,3.82,1,.1.66.2,1.32.29,1.99-2.38-.01-4.76-.02-7.15-.03.03-.97.06-1.94.1-2.9Z"/>
          <path class="cls-144" d="M15.86,6.9c1.38.09,2.76.19,4.14.28-.04.25-.04.5,0,.75-.11.52-.21,1.04-.32,1.57-2.21,1.49-4.5-.83-6.73.13,0,0-.1.25-.1.25-.35-2.37,2.65-1.33,3.01-2.98Z"/>
          <path class="cls-98" d="M69.59,61.21c-3.03,1.05-4.6-.96-6.16-2.96.69-.01,1.39-.03,2.08-.04,1.89.29,4.35-.21,4.08,3Z"/>
          <path class="cls-120" d="M69.29,7.88c.32-.38.65-.75.97-1.13,1.01.36,2.03.73,3.04,1.09.54.52,1.6,1.15,1.52,1.55-.26,1.31-1.55.8-2.42.8-1.56,0-3.55.42-3.12-2.32Z"/>
          <path class="cls-153" d="M22.95,4.08c-.46-.06-.93-.12-1.39-.18.08-.63.16-1.26.23-1.89,1.98-.03,3.96-.05,5.94-.08,0,0-.08.09-.08.09.02.5.04,1.01.07,1.52-1.49,1.07-3.17.43-4.77.55Z"/>
          <path class="cls-160" d="M72.03,43.46c-.04-2.19-.13-4.43,3.18-3.83-.47,1.77,1.4,5.48-3.18,3.83Z"/>
          <path class="cls-208" d="M13.59,39.62c3.38-.71,3.32,1.55,3.27,3.8-4.51,1.68-2.78-2.01-3.27-3.8Z"/>
          <path class="cls-211" d="M10.01,81.96c-.08.64-.17,1.29-.25,1.93-1.24-.04-3.35.95-2.82-1.6.47-2.24,1.91-1.38,3.07-.33Z"/>
          <path class="cls-83" d="M79.97,29.62s-.42.02-.42.02c-.23-.76-.47-1.51-.7-2.27,0-.25.08-.47.24-.67.98,0,1.96-.01,2.94-.02,0,0,.08.07.08.07-.11,1.41.2,3.12-2.14,2.87Z"/>
          <path class="cls-2" d="M9.41,29.64s-.43-.02-.43-.02c-2.35.32-2.16-1.34-2.21-2.82,0,0,.15-.1.15-.1.96.01,1.92.02,2.88.04,0,0,.25-.13.25-.13-.03.27-.03.55,0,.82-.21.74-.43,1.47-.64,2.21Z"/>
          <path class="cls-9" d="M79.16,83.93c-.1-.66-.2-1.32-.29-1.99,1.16-1.13,2.55-1.8,3.04.31.56,2.44-1.49,1.63-2.75,1.67Z"/>
          <path class="cls-118" d="M22.66,58.18c-1.3,1.02-2.61,2.05-3.91,3.07-.45-3.25,1.93-2.91,3.91-3.07Z"/>
          <path class="cls-8" d="M9.56,10.94c-2-.09-3.99-.17-5.99-.26,1.91-1.24,3.99-.49,6.01-.53-.01.26-.02.52-.03.79Z"/>
          <path class="cls-8" d="M3.63,13.02c.97-.08,1.98-.16,2.22,1.1.22,1.17.09,2.24-1.41,2.47,1.11-1.5.78-2.68-.8-3.57Z"/>
          <path class="cls-52" d="M27.72,3.53c-.02-.5-.04-1.01-.07-1.51,3.06,3.5,6.58,2.13,10.08.94.29.41.59.82.88,1.24.04.26.09.52.15.78-.11.55-.22,1.09-.33,1.64-.91.19-1.81.38-2.72.56-2.29-.02-4.58-.04-6.87-.07-.29-.14-.6-.2-.93-.16-.14-.66-.29-1.32-.43-1.98l.24-1.44Z"/>
          <path class="cls-39" d="M38.61,4.18c-.29-.41-.59-.82-.88-1.24-.14-.3-.12-.58.06-.86,3.23-.05,6.47-.13,9.7-.13,1.39,0,3.16-.31,2.74,2.12,0,0,.07.06.07.06l-11.69.04Z"/>
          <path class="cls-11" d="M50.23,4.08c.44-.07.87-.15,1.31-.22,2.91-.03,5.81-.05,8.72-.08.28,1.79,0,3.21-2.19,3.43-1.92,0-3.85,0-5.77,0-1.54.05-1.94-1.01-2.17-2.24.05-.28.11-.55.18-.82l-.07-.06Z"/>
          <path class="cls-80" d="M58.28,7.93c.67,0,1.34-.02,2-.03.35,1.58-.78,3.49,1.06,4.73,2.25.52,2.65,2.82,4.02,4.18-.72,3.19-3.25,1.61-5.06,1.92-2.93-.24-3.47-4.57-6.87-4.01-.05-1.33,0-2.81,1.77-2.74,3.15.13,3.16-1.87,3.07-4.06Z"/>
          <path class="cls-51" d="M58.28,7.93c.09,2.19.08,4.19-3.07,4.06-1.77-.07-1.82,1.4-1.77,2.74-.25.67-.08,1.58-1.02,1.88-.04-3.13-.08-6.27-.12-9.4,1.92,0,3.85,0,5.77,0,.09.23.16.47.21.72Z"/>
          <path class="cls-64" d="M61.35,12.63c-1.84-1.24-.71-3.15-1.06-4.73.36-.02.71-.04,1.07-.06,0,0-.09.11-.09.11.03,1.56.05,3.12.08,4.68Z"/>
          <path class="cls-43" d="M38.52,80.93c-1.3.05-2.59.16-3.89.14q-6.71-.13-6.61-7.1c1.26-.55,2.9-.74,2.64-2.75,2.54.02,5.08.05,7.62.07l.29,1.96c-.01,2.56-.03,5.12-.04,7.69Z"/>
          <path class="cls-69" d="M38.52,80.93c.01-2.56.03-5.12.04-7.69,4.02-.9,1.47-3.99,2.02-6.05.37-.04.75-.09,1.12-.13,1.87,2.26,3.83.98,5.78.16-.03,1.98-.05,3.96-.08,5.94l.04-.07c-3.95.05-7.84.08-6.57,5.98.36,1.68-.75,2.27-2.36,1.86Z"/>
          <path class="cls-194" d="M60.18,73.4c-2.86-2.38-6.15-2.83-9.69-2.17-.04-1.34-.08-2.67-.12-4.01,1.81.17,2.38-1.92,3.96-2.16,1.35,2.22,3.44,2.23,5.64,1.9,0,0,.43.16.43.16.05.64.1,1.28.15,1.91l-.38,4.36Z"/>
          <path class="cls-155" d="M69.12,69.07c.05,1.95.1,3.89.15,5.84-.35.09-.7.19-1.05.28l-1.02.02c-5.23-.48-2.77,3.48-3.3,5.71-1.49-3.84-.12-7.8-.48-11.69,1.9-.05,3.8-.11,5.71-.16Z"/>
          <path class="cls-113" d="M68.21,75.19c.35-.09.7-.19,1.05-.28.98.05,1.95.09,2.93.14,0,2.01,0,4.02,0,6.04-2.76-.05-5.53-.1-8.3-.15.52-2.24-1.94-6.2,3.29-5.72-.77,1.38-1.45,2.83,1.03,2.91.92.03,2.39,1.36,2.81-.39.52-2.17-2.16-1.34-2.82-2.53Z"/>
          <path class="cls-78" d="M16.94,76.14c-.09-.29-.13-.59-.13-.9.91-.1,1.81-.2,2.72-.3,1.71.1,3.42.2,5.13.3q.38,5.67-7.87,5.93c.04-.4.08-.79.12-1.19.88-1.83,3.27-1.48,4.63-2.84-1.46-1.72-3.13-.85-4.6-.99Z"/>
          <path class="cls-184" d="M24.66,75.24c-1.71-.1-3.42-.2-5.12-.3.1-2,.19-3.99.29-5.99.97-.02,1.94-.04,2.9-.07.7.11,1.41.22,2.11.33-.06,2.01-.12,4.02-.18,6.03Z"/>
          <path class="cls-149" d="M69.12,69.07c-1.9.05-3.81.11-5.71.16-.95-.06-1.9-.13-2.85-.19-.05-.64-.1-1.28-.15-1.92,1.3-.12.91-4.04,2.66-1.81,2.54,3.23,4.13,1.34,6.14-.08-.03,1.28-.06,2.56-.09,3.84Z"/>
          <path class="cls-91" d="M50.35,73.09c.03,2.62.07,5.23.1,7.85-1.61.32-2.98.37-2.91-1.94.06-1.97-.05-3.94-.08-5.91,0,0-.04.07-.04.07.98-.02,1.95-.05,2.93-.07Z"/>
          <path class="cls-21" d="M30.66,71.21c.26,2.01-1.38,2.2-2.64,2.75-.12-1.61-.25-3.21-.37-4.81.11-.72.22-1.43.33-2.15.85.08,1.7.17,2.56.25.04,1.32.08,2.64.12,3.95Z"/>
          <path class="cls-132" d="M27.98,67c-.11.72-.22,1.43-.33,2.15-.94.02-1.88.04-2.81.06-.7-.11-1.41-.22-2.11-.33.05-3.27,3.05-3.39,4.98-4.66.09.93.18,1.85.27,2.78Z"/>
          <path class="cls-188" d="M55.31,80.87c.11-1.03-.25-2.43,1.28-2.57,1.94-.18,1.55,1.47,1.75,2.61-1.01-.01-2.02-.03-3.03-.04Z"/>
          <path class="cls-215" d="M61.35,12.63c-.03-1.56-.05-3.12-.08-4.68,4.89,3.04,9.62,6.26,7.93,13.15-.61,2.49,2.14,3.47,1.93,5.61-.93.3-1.85.59-2.78.89-.71-.38-1.42-.77-2.13-1.15.02-.89.03-1.78.05-2.67-.35-.77-.69-1.55-1.04-2.32.98-1.52,1.63-3.06.13-4.65-1.37-1.36-1.77-3.66-4.02-4.18Z"/>
          <path class="cls-192" d="M82.03,26.68c-.98,0-1.96.01-2.94.02.06-1.64-.22-2.95-2.34-2.82-1.57.1-2.45-.56-2.41-2.28.04-1.58.7-2.51,2.31-2.53,1.52-.02,2.55-.47,2.55-2.18.9-.38,1.79-.77,2.69-1.15.05,3.65.09,7.29.14,10.94Z"/>
          <path class="cls-36" d="M74.06,14.97c-.18,1.65-.85,2.54-2.15,2.65-1.26.11-1.92-1.61-1.46-1.7,2.86-.57-1.66-3.18,1.09-3.5,2.3-.27,1.82,1.79,2.52,2.55Z"/>
          <path class="cls-215" d="M78.85,27.37c.23.76.46,1.51.7,2.27-2.78-1.05-7.11,2.35-8.41-2.93,2.49,1.18,5.12.71,7.71.66Z"/>
          <path class="cls-212" d="M81.89,15.75c-.9.38-1.79.77-2.69,1.15.02-1.1.05-2.19.07-3.29.9.08,1.79.17,2.69.25-.02.63-.05,1.26-.07,1.89Z"/>
          <path class="cls-67" d="M9.41,29.64c.21-.74.43-1.47.64-2.21,2.15-.28,4.48.87,6.46-.79.75-1.03,1.5-2.06,2.25-3.09,2.09-3.3-.86-7.55,2.03-10.7.29-.02.58-.03.87-.04,1.14-.45,1.5-2.13,3.04-1.95,1.32-.66.83-3.12,2.96-2.97,1.73,4.27-3.13,5.09-4.15,7.91-1.48,1.7-.55,3.75-.79,5.63-1.5,1.53-.78,3.47-.98,5.24-.62.08-1.23.15-1.85.23-3.15,2.26-6.61,3.3-10.49,2.73Z"/>
          <path class="cls-56" d="M9.8,26.74c-.96-.01-1.92-.02-2.88-.04.01-3.24.04-6.47.03-9.71,0-1.42-.46-3.06,1.77-3.24.72,2.5.36,6.01,4.75,5.1,1.98,3.72-.6,4.85-3.35,5.88-.11.67-.22,1.34-.32,2.01Z"/>
          <path class="cls-86" d="M27.47,4.96c.14.66.29,1.32.43,1.98-1.45.05-2.97-.03-3.24,1.96-1.56-.32-3.11-.64-4.67-.97-.04-.25-.05-.5,0-.75,1.74.26,2.47-.78,2.89-2.23,1.53,0,3.06,0,4.59,0Z"/>
          <path class="cls-86" d="M20.8,12.86c-2.89,3.14.06,7.4-2.03,10.7,0-2.54,0-5.08-.02-7.62-.01-1.5.04-2.94,2.06-3.08Z"/>
          <path class="cls-86" d="M10.13,24.73c2.76-1.02,5.33-2.15,3.35-5.88,2.61,4.54,2,5.6-3.35,5.88Z"/>
          <path class="cls-86" d="M12.95,9.63c2.22-.97,4.51,1.36,6.73-.13-2.2,2.11-4.44,2.09-6.73.13Z"/>
          <path class="cls-76" d="M24.67,8.9c.26-2,1.79-1.91,3.24-1.96.33-.04.64.02.93.16-.39.27-.78.54-1.16.81-2.13-.15-1.64,2.31-2.96,2.97,0-.33,0-.67,0-1,.09-.33.08-.65-.04-.97Z"/>
          <path class="cls-86" d="M16.51,26.65c-1.98,1.66-4.31.51-6.46.79-.03-.27-.03-.55,0-.82,2.15.01,4.31.02,6.46.03Z"/>
          <path class="cls-16" d="M24.71,9.87c0,.33,0,.67,0,1-1.55-.18-1.9,1.5-3.04,1.95.06-1.96.84-3.19,3.04-2.95Z"/>
          <path class="cls-86" d="M13.74,14.31c-.17.64-.47,1.03-.95.68-.31-.23-.54-.75-.53-1.13,0-.21.61-.39.94-.58.2.38.39.76.54,1.04Z"/>
          <path class="cls-87" d="M21.65,43.61c.13-1.81-.04-3.12-1.92-4.45-2.62-1.86-3.02-4.33.92-5.62.29-1.07.68-2.03,2.08-1.89.25,1.26-.27,3.04,1.99,2.92-.18.89.05,1.64.79,2.21.57,3.68,2.56,3.38,4.62,1.38,1.18-1.14,1.95-2.22,3.51-.75-3.62,3.7-1.8,6.1,1.93,8.04-.07,3.89-3.16,1.56-4.75,2.3-1.74-.14-3.52-.59-5.21-.37-3.11.41-3.93-1.16-3.95-3.77Z"/>
          <path class="cls-147" d="M30.48,51.28c.11-.28.21-.56.3-.84,3.04.3,5.92-.64,8.89,2.29,2.02,1.98,7.49,1.97,9.68-.05,2.69-2.48,5.1-2.14,7.9-2.18.04.93.08,1.86.12,2.8-1.66.19-3.13-.06-4.44,1.92-.98,1.49-2.84,3.49-5.46,2.97-1.1-3.51-3.96-1.24-5.96-1.81-2.17,3.21-4.67.31-5.19-.69-1.43-2.78-3.58-2.23-5.73-2.36l-.11-2.04Z"/>
          <path class="cls-171" d="M57.26,50.5c-2.8.04-5.21-.3-7.9,2.18-2.19,2.01-7.66,2.03-9.68.05-2.98-2.92-5.86-1.98-8.89-2.29.01-.66.02-1.33.04-2,1.92-.31,4.06.74,5.75-.95,1.43-.19,2.71.27,3.96.91.03.53.06,1.05.08,1.58,4.57,2.81,7.24,1.96,7.81-2.48,1.41-.18,2.69.22,3.9.91,1.65,0,3.29-.02,4.94-.03,0,0,.12.06.12.06-.04.69-.09,1.38-.13,2.06Z"/>
          <path class="cls-118" d="M30.48,51.28c.04.68.07,1.36.11,2.04,0,0-.03-.04-.03-.04-.61.08-1.23.17-1.84.25-2.24,3.38-.31,7.16-1.01,10.69-1.93,1.27-4.93,1.39-4.98,4.66-.97.02-1.94.04-2.9.06-.09-1.24-.17-2.48-.25-3.72-.1-3.67,4.88-3.46,5.22-6.81,1.18-1.43,1.84-3.01,1.94-4.91.13-2.43,1.67-2.89,3.75-2.22Z"/>
          <path class="cls-123" d="M36.57,47.49c-1.69,1.69-3.84.64-5.75.95-.13-.23-.13-.47,0-.7,1.6-.74,4.68,1.59,4.75-2.3,0,0,.11-.31.11-.31.27.15.56.27.86.35.01.67.03,1.34.04,2.01Z"/>
          <path class="cls-24" d="M66.22,26.44c.71.39,1.42.77,2.13,1.15-.05.68-.1,1.37-.16,2.05-.99.4-1.67,1.07-1.88,2.14-.26.97.01,2.17-1.22,2.7.38-2.68.75-5.36,1.13-8.04Z"/>
          <path class="cls-37" d="M65.1,34.49c1.24-.52.96-1.73,1.22-2.7,4.98,2.78,4.37,6.13,1.09,9.86-.34.38-.14,1.24-.2,1.87-.69,2.69-1.98,4.44-5.22,3.86-1.33-.24-2.87-.36-4.02.83-.2.08-.39.16-.59.23,0,0-.12-.06-.12-.06-1.39-1.29-3.34-.28-4.83-1.16.02-.59.04-1.19.05-1.78.57-.32,1.14-.65,1.71-.97-.15-1.87,3.91-2.49,1.49-5.03-.18-.91-.36-1.82-.54-2.74,1.6-.3,2.54.45,3.71,1.58,2.17,2.09,4.11,1.83,4.55-1.67.24-.62.48-1.25.71-1.87.32-.09.64-.18.96-.26Z"/>
          <path class="cls-199" d="M62.39,56.31c-1.39-.44-.81-2.52-2.36-2.82-.57-.05-1.14-.09-1.71-.14,0-.99.02-1.98.02-2.97,5.07-.56,3.53,3.39,4.05,5.93Z"/>
          <path class="cls-84" d="M58.34,50.38c0,.99-.02,1.98-.02,2.97-.32.05-.63.04-.94-.05-.04-.93-.08-1.87-.12-2.8.04-.69.09-1.37.13-2.06.2-.07.39-.15.59-.23.12.72.25,1.45.37,2.17Z"/>
          <path class="cls-81" d="M59.98,66.96c-2.21.33-4.3.32-5.64-1.9.1-1.65,1.41-3.07.97-4.83.05-.29.11-.57.17-.86,1.72-.28,2.82-1.14,2.87-3.01.61-.05,1.23-.09,1.84-.14.32,3.59.45,7.17-.2,10.73Z"/>
          <path class="cls-115" d="M60.19,56.23c-.61.05-1.23.09-1.84.14-2.2-.19-3.26.72-2.87,3.01-.06.29-.11.57-.17.86-1.61.06-3.22.12-4.83.18-1-.74-2-1.48-3-2.22,2.62.51,4.48-1.48,5.46-2.97,1.31-1.98,2.78-1.73,4.44-1.92.31.09.62.1.94.05.57.05,1.14.09,1.71.14.05.91.1,1.83.15,2.74Z"/>
          <path class="cls-196" d="M22.73,31.65c-1.39-.14-1.79.82-2.08,1.89-1.05.04-2.14.23-2.89-.79,3.36-.98,1.6-3.83,2.14-5.84.62-.07,1.23-.15,1.85-.22.29,0,.59,0,.88,0,.03,1.66.07,3.32.1,4.97Z"/>
          <path class="cls-176" d="M19.57,65.23c.08,1.24.17,2.48.25,3.72-.09,2-.19,3.99-.29,5.99-.91.1-1.82.2-2.72.3-.04-3.29-.1-6.57-.13-9.86-.01-1.49-.14-3.11,2.09-3.1.06,1.04-.16,2.15.79,2.95Z"/>
          <path class="cls-68" d="M16.94,76.14c1.47.14,3.13-.72,4.6.99-1.36,1.36-3.75,1.01-4.63,2.84,0-1.28.02-2.56.03-3.84Z"/>
          <path class="cls-170" d="M27.47,4.96c-1.53,0-3.06,0-4.59,0-.05-.3-.03-.59.06-.88,1.6-.12,3.28.52,4.77-.55-.08.48-.16.95-.24,1.43Z"/>
          <path class="cls-73" d="M35.43,11.97c.02.93.04,1.86.06,2.79-2.79-.15-4.36,1.3-5.08,3.86-.84.09-1.68.18-2.52.26-2.15-.03-4.5.22-4.37-3.06,1.02-2.83,5.88-3.65,4.15-7.91.39-.27.77-.54,1.16-.81,2.29.02,4.58.04,6.87.07-.05.23-.11.47-.17.7-.64.02-1.27.05-1.91.06-1.51.01-3.17.12-2.85,2.18.46,2.95,3.04,1.35,4.65,1.87Z"/>
          <path class="cls-74" d="M50.12,4.97c-3.79,0-7.58,0-11.36,0-.05-.26-.1-.52-.15-.78,3.9-.01,7.79-.03,11.69-.04-.06.27-.12.55-.18.82Z"/>
          <path class="cls-74" d="M35.54,7.86c.06-.23.12-.46.17-.7.91-.19,1.81-.38,2.72-.56-.92,1.11-1.83,2.21-2.75,3.32-.05-.68-.09-1.37-.14-2.05Z"/>
          <path class="cls-79" d="M47.52,31.22c.07-3.11.42-6.24.14-9.32-.34-3.73.95-5.52,4.75-5.3.94-.3.77-1.21,1.02-1.88,3.4-.56,3.94,3.76,6.87,4.01.05.65.09,1.3.14,1.95q-8.36.36-8.19,8.57c.04,1.79.12,3.58.18,5.37-2.39-.05-2.33-3.64-4.91-3.41Z"/>
          <path class="cls-133" d="M60.44,20.69c-.05-.65-.09-1.3-.14-1.95,1.81-.31,4.34,1.27,5.06-1.92,1.49,1.59.85,3.13-.13,4.65-.62.09-1.23.18-1.85.26-.64-.04-1.28-.08-1.92-.12-.34-.31-.69-.61-1.03-.92Z"/>
          <path class="cls-27" d="M30.66,71.21c-.04-1.32-.08-2.64-.12-3.95,1.86.23,2.9-1.08,4.06-2.17,1.12,1.03,2.07,2.36,3.88,2.13-.07,1.35-.14,2.71-.2,4.06-2.54-.02-5.08-.05-7.62-.07Z"/>
          <path class="cls-54" d="M38.28,71.28c.07-1.35.14-2.71.2-4.06.7,0,1.4-.02,2.11-.02-.55,2.06,2,5.15-2.02,6.05-.09-.65-.19-1.31-.29-1.96Z"/>
          <path class="cls-161" d="M50.35,73.09c-.98.02-1.95.05-2.93.07.03-1.98.05-3.96.08-5.94,0,0-.04,0-.04,0,.97,0,1.95,0,2.92.01.04,1.34.08,2.67.12,4.01-.05.62-.1,1.24-.15,1.86Z"/>
          <path class="cls-128" d="M38.58,64.22c2-.11,2.14,1.83,3.13,2.84-.37.04-.75.09-1.12.13-.7,0-1.4.02-2.11.02-1.81.23-2.77-1.1-3.89-2.13-.34-.94-.68-1.88-1.02-2.82,0,0,.09-.05.09-.05,2-.23,3.66.39,4.91,2Z"/>
          <path class="cls-198" d="M47.45,67.21c-.75-3.05,4.51-3.42,3.02-6.8,1.61-.06,3.22-.12,4.83-.17.43,1.76-.87,3.17-.97,4.83-1.58.23-2.15,2.33-3.96,2.16-.97,0-1.95,0-2.92-.01Z"/>
          <path class="cls-40" d="M68.21,75.19c.66,1.19,3.34.36,2.82,2.53-.42,1.75-1.89.42-2.81.39-2.49-.08-1.81-1.53-1.03-2.91.34,0,.68-.01,1.02-.02Z"/>
          <path class="cls-213" d="M33.58,62.27c.34.94.68,1.88,1.02,2.82-1.16,1.09-2.2,2.4-4.06,2.17-.85-.08-1.71-.17-2.56-.25-.09-.93-.18-1.85-.27-2.78.7-3.53-1.23-7.31,1.01-10.69-.25,3.95,3.63,5.6,4.86,8.73Z"/>
          <path class="cls-110" d="M61.47,21.61c.64.04,1.28.08,1.91.12-.18,2.29,1.51,1.95,2.88,2.05-.02.89-.03,1.78-.05,2.67-.37,2.68-.75,5.36-1.12,8.04-.32.09-.64.18-.95.26-.4-.11-.8-.23-1.2-.34.06-.93.12-1.86.18-2.8,0-.86-.02-1.71-.03-2.57.09-1.16.04-2.35-1.55-2.14-1.48.2-1.18,1.56-1.32,2.58l.16.41c-1.91,1.52-4.84,1.64-5.9,4.32-.39-.05-.77-.1-1.16-.16l.1-6.47c2.36,1.46,4.27,2,3.96-1.95l-.13.12c2.11.03,4.07-.08,3.04-3.11.39-.35.77-.7,1.16-1.04Z"/>
          <path class="cls-185" d="M66.27,23.78c-1.37-.11-3.07.24-2.88-2.05.62-.09,1.23-.17,1.85-.26.35.77.69,1.54,1.04,2.32Z"/>
          <path class="cls-172" d="M23.52,15.82c-.12,3.28,2.22,3.03,4.37,3.06-.04.64-.07,1.27-.11,1.91-.78.97-1.95.7-2.96.93l-2.09-.26c.24-1.88-.69-3.92.79-5.63Z"/>
          <path class="cls-14" d="M22.73,21.45c.7.09,1.4.18,2.09.27-.9,1.58-2.42,2.89-2.19,4.96-.29,0-.59,0-.88,0,.19-1.77-.52-3.71.98-5.24Z"/>
          <path class="cls-70" d="M22.63,26.68c-.23-2.08,1.29-3.38,2.19-4.96,1.01-.22,2.18.05,2.96-.93,1.19.58,2.91-.81,3.76,1.03-.92-.04-1.58.27-1.72,1.28-.09.85-.19,1.7-.28,2.56-1.24-.04-1.74.69-1.9,1.79-2.67.66-2.54,2.9-2.79,4.93-.04.74-.08,1.47-.12,2.21-2.26.12-1.74-1.67-1.99-2.92-.03-1.66-.07-3.32-.1-4.97Z"/>
          <path class="cls-82" d="M35.77,34.66c-.23,1.29-.53,2.52-2.14,2.75-1.56-1.47-2.33-.39-3.51.76-2.06,2-4.05,2.3-4.62-1.38,1.38-.13,2.46-.52,2.12-2.26,1.9-.21,3.79-.42,5.69-.64.67.2,1.33.4,2,.61l.46.17Z"/>
          <path class="cls-41" d="M27.63,34.52c.34,1.74-.74,2.13-2.12,2.26-.74-.57-.96-1.31-.79-2.21.04-.74.08-1.47.12-2.2.21.1.42.15.65.16.06,1.47.89,1.88,2.21,1.59l-.07.39Z"/>
          <path class="cls-210" d="M41.52,56.38c.71,2.65-2.07,2.67-3.05,4.05-1.6-.07-3.21-.14-4.81-.21.15-2.84-3.72-3.88-3.09-6.93,0,0,.03.04.03.04,2.15.13,4.31-.42,5.73,2.36.52,1,3.02,3.9,5.19.69Z"/>
          <path class="cls-158" d="M42.3,44.45c.05-.6.1-1.2.16-1.8q1.97,2.96,4.04-.05c.03.62.06,1.24.09,1.86,1.73,1.79,3.96.55,5.92.97-.02.59-.04,1.19-.06,1.78-.04.4-.07.79-.11,1.18-1.21-.68-2.49-1.09-3.9-.91-.42.03-.84.07-1.26.1-2.19.46-4.59-.8-6.64.8-1.24-.63-2.53-1.1-3.96-.91-.01-.67-.03-1.34-.04-2.01,1.89-.5,4.12.87,5.76-1.03Z"/>
          <path class="cls-116" d="M40.53,48.4c2.05-1.61,4.45-.35,6.64-.8-.39,5.73-4.17,2.14-6.56,2.38-.03-.53-.06-1.05-.08-1.58Z"/>
          <path class="cls-84" d="M40.62,49.98c2.39-.24,6.17,3.35,6.56-2.38.42-.03.84-.07,1.26-.1-.58,4.45-3.24,5.29-7.81,2.48Z"/>
          <path class="cls-84" d="M52.33,48.4c.04-.39.07-.79.11-1.18,1.49.88,3.44-.14,4.83,1.16-1.65,0-3.29.02-4.94.03Z"/>
          <path class="cls-138" d="M30.56,53.29c-.63,3.05,3.24,4.09,3.09,6.93,0,.67.01,1.34.02,2.01,0,0-.09.05-.09.05-1.23-3.13-5.11-4.78-4.86-8.73.61-.08,1.23-.17,1.84-.25Z"/>
          <path class="cls-163" d="M42.3,44.45c-1.64,1.9-3.87.53-5.76,1.03-.3-.08-.59-.2-.86-.35,2.1-1.31,4.42-.38,6.62-.68Z"/>
          <path class="cls-104" d="M52.49,36.19c.03-.29.1-.57.22-.84.21-.43.42-.86.62-1.29.39.05.77.1,1.16.16,1.94.08,3.88.17,5.81.25.02,2.2,1.5,2.29,3.13,2.15-.44,3.5-2.38,3.76-4.55,1.67-1.18-1.13-2.11-1.88-3.71-1.58-.89-.17-1.78-.34-2.68-.51Z"/>
          <path class="cls-180" d="M63.43,36.62c-1.63.14-3.11.05-3.13-2.15,0,0-.13-.35-.13-.35.93.1,1.85.19,2.78.29.4.11.8.23,1.19.34-.24.62-.48,1.25-.72,1.87Z"/>
          <path class="cls-42" d="M55.47,59.38c-.39-2.29.67-3.2,2.87-3.01-.05,1.87-1.15,2.73-2.87,3.01Z"/>
          <path class="cls-164" d="M49.28,35.89c-.2,2.54,1.45,5.86-2.79,6.72q-2.07,3.01-4.04.05c-.93-.64-2.48.39-3.07-1.16.09-1.96.18-3.91.27-5.87,0,0,.19.16.19.16,2.91,1.2,5.81,2.14,8.63-.24.23.21.5.32.81.34Z"/>
          <path class="cls-174" d="M30.41,18.61c.72-2.56,2.29-4.01,5.08-3.86.43,3.42,3.04,1.8,4.84,2.09.12,4.1.24,8.19.36,12.29.04,1.42-.1,2.68-1.97,2.69l-.28-.27q.4-10.46-8.03-12.93Z"/>
          <path class="cls-31" d="M35.54,7.86c.05.68.09,1.37.14,2.05-.08.68-.16,1.37-.25,2.05-1.61-.52-4.19,1.09-4.65-1.87-.32-2.07,1.34-2.17,2.85-2.18.64,0,1.27-.04,1.91-.06Z"/>
          <path class="cls-102" d="M48.47,35.54c-2.81,2.38-5.71,1.44-8.63.24.25-.47.5-.93.75-1.4,2.61.06,5.22.12,7.84.18.01.33.02.65.03.98Z"/>
          <path class="cls-163" d="M39.65,35.62c-.09,1.96-.18,3.91-.27,5.87-1.19-2.01-1.52-3.99.27-5.87Z"/>
          <path class="cls-53" d="M38.72,31.81c-.05.27-.04.54.04.8-.48,1.43-1.52,2.05-2.98,2.05,0,0-.46-.17-.46-.17.22-.29.43-.59.65-.88,1.37-.03,1.57-1.47,2.48-2.06l.28.27Z"/>
          <path class="cls-121" d="M38.44,31.54c-.91.59-1.11,2.03-2.48,2.06.15-2.58.2-5.17.48-7.73.43-3.94-1.45-4.9-4.9-4.06-.85-1.83-2.57-.44-3.76-1.03.04-.63.07-1.27.11-1.91.84-.09,1.68-.18,2.52-.26q8.43,2.47,8.03,12.93Z"/>
          <path class="cls-106" d="M53.33,34.06c-.21.43-.42.86-.62,1.29-.16-.21-.25-.45-.27-.72-.06-1.79-.14-3.58-.18-5.37q-.17-8.21,8.19-8.57c.34.31.69.61,1.03.92-.39.35-.77.69-1.16,1.04-2.84-.75-3.1,1.03-3.04,3.11,0,0,.13-.12.13-.12-1.45.39-3.98-1.41-3.96,1.95l-.1,6.47Z"/>
          <path class="cls-207" d="M33.67,62.22c0-.67-.01-1.34-.02-2.01,1.6.07,3.21.14,4.81.21.04,1.27.08,2.53.12,3.79-1.25-1.61-2.91-2.23-4.91-2Z"/>
          <path class="cls-59" d="M60.3,34.47c-1.94-.08-3.87-.17-5.81-.25,1.06-2.68,3.99-2.8,5.9-4.32.04.63.08,1.27.12,1.9-.11.77-.23,1.55-.34,2.32,0,0,.13.35.13.35Z"/>
          <path class="cls-109" d="M60.17,34.12c.11-.77.23-1.55.34-2.32.87-.06,1.75-.12,2.62-.18-.06.93-.12,1.86-.18,2.8-.93-.1-1.85-.2-2.78-.29Z"/>
          <path class="cls-94" d="M57.27,25.76c-.05-2.08.2-3.86,3.04-3.11,1.03,3.04-.93,3.15-3.04,3.11Z"/>
          <path class="cls-20" d="M63.13,31.61c-.87.06-1.75.12-2.62.18-.04-.63-.08-1.27-.12-1.9,0,0-.16-.41-.16-.41.96-.15,1.92-.29,2.88-.44,0,.86.02,1.71.03,2.57Z"/>
          <path class="cls-162" d="M63.1,29.05c-.96.15-1.92.29-2.88.44.14-1.02-.15-2.38,1.32-2.58,1.59-.21,1.64.98,1.55,2.14Z"/>
          <path class="cls-17" d="M31.54,21.81c3.45-.84,5.33.13,4.9,4.06-.28,2.56-.33,5.15-.48,7.73-.21.29-.43.59-.64.88-.67-.2-1.33-.4-2-.61.17-3.06-2.33-1.76-3.71-2.27-.57-1.04-1.14-2.07-1.71-3.11,2.56.89,3.08-.64,3.19-2.67,1.79.2,3.05-.49,2.34-2.35-.73-1.92-2.31-.97-3.6-.38.14-1.01.8-1.32,1.72-1.28Z"/>
          <path class="cls-189" d="M27.9,28.5c.57,1.04,1.14,2.07,1.71,3.11-.62.3-1.23.6-1.85.89-.77-1.06-1.52-.91-2.26.03-.23-.01-.44-.07-.65-.16.25-2.03.12-4.27,2.79-4.93.09.36.17.71.26,1.06Z"/>
          <path class="cls-32" d="M29.82,23.09c1.29-.59,2.87-1.53,3.6.38.71,1.86-.55,2.56-2.34,2.35-.51-.06-1.03-.12-1.54-.18.09-.85.19-1.7.28-2.56Z"/>
          <path class="cls-35" d="M29.54,25.65c.51.06,1.03.12,1.54.18-.1,2.04-.63,3.56-3.19,2.67-.09-.35-.17-.71-.26-1.06.16-1.1.67-1.83,1.9-1.79Z"/>
          <path class="cls-19" d="M27.76,32.51c.62-.3,1.23-.6,1.85-.89,1.39.51,3.88-.79,3.71,2.27-1.9.22-3.79.43-5.69.64,0,0,.07-.39.07-.39.02-.54.04-1.08.05-1.62Z"/>
        </g>
      </g>
    </g>
  </g>
</svg>